{"title":"Hard Target (1993) 720p BRRip HEVC x265 [Dual-Audio][English 2.0","uid":12008913,"size":1176610710,"categoryP":"video","categoryS":"movies","magnet":"?xt=urn:btih:626bfc71c6a7cc5fb3f715e4ea8895684226c400&amp;dn=Hard+Target+%281993%29+720p+BRRip+HEVC+x265+%5BDual-Audio%5D%5BEnglish+2.0&amp;tr=udp%3A%2F%2Ftracker.openbittorrent.com%3A80&amp;tr=udp%3A%2F%2Fopen.demonii.com%3A1337&amp;tr=udp%3A%2F%2Ftracker.coppersurfer.tk%3A6969&amp;tr=udp%3A%2F%2Fexodus.desync.com%3A6969","seeders":6,"leechers":5,"uploader":"praneet_gupta777","files":3,"time":1434048891,"description":"[center]\n[b][size=7]Hard Target (1993) 720p BRRip HEVC x265 [Dual-Audio][English 2.0+Hindi 2.0] [PKG][/size][/b]\n\n\n\n\n\n[img]http://s20.postimg.org/ym001i5j1/850x571x262675_jpg_pagespeed_ic_y_Ayev8_W0z_E.jpg[/img]\n\n\n[img]http://s20.postimg.org/91xpv2k59/Untitled.png[/img]\n\n\n\n\n[img]http://img9.uploadhouse.com/fileuploads/15981/15981250a2a3770f9f004bcdf00afac92833ebdb.png[/img]\n\n\n[quote]\n\n\nGeneral\nUnique ID                   : 231575104201958289730203952553701202201 (0xAE37BE253D0F1235BBEAF992A62CD919)\nComplete name               : G:Hard Target (1993) 720p BRRip HEVC x265 [Dual-Audio][English 2.0+Hindi 2.0] [PKG]Hard Target (1993) 720p BRRip HEVC x265 [Dual-Audio][English 2.0+Hindi 2.0] [PKG].mkv\nFormat                      : Matroska\nFormat version              : Version 2\nFile size                   : 1.09 GiB\nDuration                    : 1h 39mn\nOverall bit rate            : 1 568 Kbps\nEncoded date                : UTC 2015-05-14 16:25:33\nWriting application         : mkvmerge v7.7.0 ('Six Voices') 32bit built on Feb 28 2015 23:23:00\nWriting library             : libebml v1.3.1 + libmatroska v1.4.2\nDURATION                    : 01:39:33.600000000\nNUMBER_OF_FRAMES            : 186675\nNUMBER_OF_BYTES             : 167260800\n\nVideo\nID                          : 1\nFormat                      : HEVC\nFormat/Info                 : High Efficiency Video Coding\nCodec ID                    : V_MPEGH/ISO/HEVC\nDuration                    : 1h 39mn\nBit rate                    : 1 088 Kbps\nWidth                       : 1 280 pixels\nHeight                      : 696 pixels\nDisplay aspect ratio        : 1.85:1\nFrame rate mode             : Constant\nFrame rate                  : 23.976 fps\nBits/(Pixel*Frame)          : 0.051\nStream size                 : 775 MiB (69%)\nDefault                     : Yes\nForced                      : No\n\nAudio #1\nID                          : 2\nFormat                      : AC-3\nFormat/Info                 : Audio Coding 3\nMode extension              : CM (complete main)\nFormat settings, Endianness : Big\nCodec ID                    : A_AC3\nDuration                    : 1h 39mn\nBit rate mode               : Constant\nBit rate                    : 224 Kbps\nChannel(s)                  : 2 channels\nChannel positions           : Front: L R\nSampling rate               : 48.0 KHz\nBit depth                   : 16 bits\nCompression mode            : Lossy\nStream size                 : 160 MiB (14%)\nLanguage                    : Hindi\nDefault                     : Yes\nForced                      : No\n\nAudio #2\nID                          : 3\nFormat                      : AC-3\nFormat/Info                 : Audio Coding 3\nMode extension              : CM (complete main)\nFormat settings, Endianness : Big\nCodec ID                    : A_AC3\nDuration                    : 1h 39mn\nBit rate mode               : Constant\nBit rate                    : 224 Kbps\nChannel(s)                  : 2 channels\nChannel positions           : Front: L R\nSampling rate               : 48.0 KHz\nBit depth                   : 16 bits\nCompression mode            : Lossy\nStream size                 : 160 MiB (14%)\nLanguage                    : English\nDefault                     : No\nForced                      : No\n\n\n[color=navy][size=6][b]SAMPLE WITHIN TORRENT[/b][/size][/color]\n\n\n\n\n\n[img]http://icons.iconarchive.com/icons/tribalmarkings/colorflow/256/screenshots-icon.png[/img]\n\n\n\n[img]http://s20.postimg.org/o0g4phz7h/vlcsnap_2015_06_10_17h49m53s108.png[/img]\n\n\n[img]http://s20.postimg.org/su4h83l31/vlcsnap_2015_06_10_17h51m26s6.png[/img]\n\n\n[img]http://s20.postimg.org/wb6jb2k59/vlcsnap_2015_06_10_17h52m13s225.png[/img]\n\n\n[img]http://s20.postimg.org/6pppxh7jx/vlcsnap_2015_06_10_17h52m21s54.png[/img]\n\n\n[img]http://s20.postimg.org/tftg47g59/vlcsnap_2015_06_10_17h52m46s37.png[/img]\n\n\n[img]http://s20.postimg.org/5ywzrp56l/vlcsnap_2015_06_10_17h53m16s95.png[/img]\n\n\n[img]http://s20.postimg.org/ukni9l2m5/vlcsnap_2015_06_10_17h53m51s181.png[/img]\n\n\n[img]http://s20.postimg.org/3p8vgxw8t/Hard_Target_1993_720p_BRRip_HEVC_x265_Dual_Au.jpg[/img]\n\n[b]Use a reputed media player that can play H.265 (HEVC : High Efficiency Video Coding) Video support.\nMedia Player Classic - Home Cinema and MPC-BE are recommended!.. VLC is OKay, but MPC variants are preferred.\nVLC and players like latest GOM, KMP/PotP with LAV can play HEVC.\n\nAnd also use latest K-Lite Codec Pack.\n\nIn Mobile, Android, Tabs, use a media player like VLC Player, MX Player... that can play H.265 :]\nFor more info, read the How_to_Play_ file inside the torrent.\n\n\nBe aware that all HEVC rips will not play on any stand-alone device. You can only watch this on a computer or on devices which have HEVC support.\nBe sure that you have the latest versions of VLC or Media Player Classic or SMPlayer. Earlier versions may not work[/b]\n\n\n\n[/center]","torrent":{"xt":"urn:btih:626bfc71c6a7cc5fb3f715e4ea8895684226c400","amp;dn":"Hard+Target+%281993%29+720p+BRRip+HEVC+x265+%5BDual-Audio%5D%5BEnglish+2.0","amp;tr":["udp%3A%2F%2Ftracker.openbittorrent.com%3A80","udp%3A%2F%2Fopen.demonii.com%3A1337","udp%3A%2F%2Ftracker.coppersurfer.tk%3A6969","udp%3A%2F%2Fexodus.desync.com%3A6969"],"infoHash":"626bfc71c6a7cc5fb3f715e4ea8895684226c400","infoHashBuffer":{"type":"Buffer","data":[98,107,252,113,198,167,204,95,179,247,21,228,234,136,149,104,66,38,196,0]},"announce":[],"urlList":[]}}